<svg width="706" height="680" viewBox="0 0 706 680" fill="none" xmlns="http://www.w3.org/2000/svg">
<g filter="url(#filter0_f_57_35)">
<ellipse cx="353" cy="340" rx="253" ry="240" fill="url(#paint0_linear_57_35)"/>
</g>
<g clip-path="url(#clip0_57_35)">
<path d="M631 340C631.101 408.219 606.97 474.257 562.91 526.34C561.31 528.24 559.68 530.11 558.02 531.97C538.485 553.94 515.729 572.818 490.53 587.96C484.75 591.43 478.843 594.7 472.81 597.77C472.2 598.08 471.58 598.39 470.97 598.69C470.24 599.06 469.5 599.42 468.76 599.78C453.493 607.253 437.59 613.35 421.24 618C419.54 618.48 417.837 618.947 416.13 619.4C394.622 625.091 372.529 628.275 350.29 628.89C349.13 628.92 347.99 628.94 346.89 628.96C346.5 628.97 346.12 628.98 345.74 628.98C344.49 628.99 343.25 629 342 629C318.564 629.017 295.213 626.187 272.46 620.57C270.18 620.01 267.91 619.42 265.65 618.8C253.746 615.55 242.064 611.532 230.68 606.77C224.68 604.27 218.787 601.573 213 598.68C211.69 598.02 210.38 597.36 209.09 596.68C208.54 596.41 208 596.12 207.46 595.84C176.618 579.562 148.96 557.862 125.81 531.78C124.21 529.99 122.64 528.17 121.09 526.34C95.5827 496.097 76.5559 460.94 65.1881 423.045C53.8202 385.15 50.3534 345.325 55.0022 306.036C59.6511 266.747 72.3167 228.831 92.2146 194.636C112.113 160.441 138.819 130.695 170.68 107.24C172.32 106.03 173.97 104.83 175.64 103.66C175.97 103.43 176.3 103.2 176.63 102.97C205.973 82.416 238.908 67.5427 273.73 59.12C275.71 58.63 277.69 58.17 279.69 57.74C317.407 49.4897 356.387 48.8065 394.37 55.73C396.36 56.1 398.35 56.48 400.33 56.89C434.841 63.9685 467.755 77.3342 497.43 96.32C498.09 96.74 498.75 97.16 499.41 97.6C500.74 98.46 502.07 99.34 503.38 100.23C542.691 126.658 574.894 162.354 597.151 204.168C619.407 245.983 631.032 292.631 631 340Z" fill="#F2F2F2"/>
<path d="M269 489.51L176.63 497.71L175.64 497.8V103.66C175.97 103.43 176.3 103.2 176.63 102.97C195.881 89.5047 216.705 78.4427 238.64 70.03L243.36 135.13L243.79 141.09L248.46 205.65L249.9 225.51L268.83 487.21L269 489.51Z" fill="#CCCCCC"/>
<path d="M497.43 96.32C498.09 96.74 498.75 97.16 499.41 97.6V497.8L497.43 497.62L406.06 489.51L406.23 487.21L425.16 225.51L426.6 205.65L431.27 141.09L431.7 135.13L436.65 66.86C457.997 74.2594 478.397 84.1475 497.43 96.32Z" fill="#CCCCCC"/>
<path d="M497.43 96.32V503.26C497.43 511.07 492.05 517.42 485.43 517.42H188.63C183.15 517.42 178.5 513.06 177.09 507.11C176.782 505.85 176.628 504.557 176.63 503.26V102.97C176.3 103.2 175.97 103.43 175.64 103.66C173.97 104.83 172.32 106.03 170.68 107.24V503.26C170.591 509.192 172.807 514.928 176.86 519.26C178.985 521.487 181.674 523.097 184.64 523.92C185.94 524.274 187.282 524.452 188.63 524.45H485.43C486.781 524.451 488.126 524.273 489.43 523.92C497.41 521.77 503.38 513.33 503.38 503.26V100.23C502.07 99.34 500.74 98.46 499.41 97.6C498.75 97.16 498.09 96.74 497.43 96.32Z" fill="#CCCCCC"/>
<path d="M500.407 135.134H173.655V141.093H500.407V135.134Z" fill="#CCCCCC"/>
<path d="M273.73 59.12C275.71 58.63 277.69 58.17 279.69 57.74V219.55H273.73V59.12Z" fill="#CCCCCC"/>
<path d="M394.37 55.73C396.36 56.1 398.35 56.48 400.33 56.89V219.55H394.37V55.73Z" fill="#CCCCCC"/>
<path d="M537.65 487.21H146.34C139.227 487.21 132.405 490.036 127.375 495.065C122.346 500.095 119.52 506.917 119.52 514.03C119.52 521.143 122.346 527.965 127.375 532.995C132.405 538.024 139.227 540.85 146.34 540.85H537.65C541.459 540.851 545.224 540.039 548.694 538.468C552.163 536.896 555.258 534.603 557.77 531.74C558.907 530.446 559.918 529.046 560.79 527.56C561.465 526.42 562.05 525.23 562.54 524C564.174 519.931 564.784 515.524 564.318 511.164C563.852 506.804 562.324 502.626 559.867 498.994C557.41 495.363 554.1 492.389 550.226 490.335C546.353 488.28 542.035 487.207 537.65 487.21Z" fill="#CCCCCC"/>
<path d="M500.407 205.649H175.642V225.512H500.407V205.649Z" fill="#CCCCCC"/>
<path d="M335.045 199.69H341.004C342.439 199.69 343.859 199.972 345.185 200.521C346.51 201.071 347.715 201.875 348.729 202.89C349.743 203.904 350.548 205.109 351.097 206.434C351.646 207.759 351.929 209.18 351.929 210.615H324.12C324.12 207.717 325.271 204.938 327.32 202.89C329.369 200.841 332.147 199.69 335.045 199.69H335.045Z" fill="#CCCCCC"/>
<path d="M562.91 526.34C554.223 536.634 544.826 546.307 534.79 555.29H149.21C139.173 546.307 129.777 536.634 121.09 526.34H562.91Z" fill="#3F3D56"/>
<path d="M374.28 426.07H309.36C309.01 426.066 308.662 426.12 308.33 426.23C307.625 426.448 307.009 426.886 306.572 427.48C306.134 428.074 305.899 428.792 305.9 429.53V532.09H377.75V429.53C377.75 429.075 377.659 428.624 377.485 428.204C377.31 427.784 377.054 427.402 376.732 427.081C376.41 426.759 376.027 426.505 375.607 426.331C375.186 426.158 374.735 426.069 374.28 426.07ZM349.71 476.67C349.712 478.334 349.164 479.951 348.15 481.27C347.183 482.55 345.838 483.494 344.305 483.969C342.773 484.445 341.13 484.427 339.608 483.919C338.086 483.411 336.762 482.438 335.822 481.138C334.882 479.837 334.375 478.274 334.37 476.67V464.77C334.389 462.748 335.205 460.815 336.641 459.392C338.078 457.969 340.018 457.171 342.04 457.171C344.062 457.171 346.002 457.969 347.439 459.392C348.875 460.815 349.691 462.748 349.71 464.77V476.67Z" fill="#2F2E41"/>
<path d="M305.68 528.81V538.7C305.68 539.213 305.883 539.705 306.245 540.068C306.606 540.432 307.097 540.637 307.61 540.64H376.04C376.552 540.636 377.042 540.43 377.404 540.066C377.765 539.703 377.968 539.212 377.97 538.7V528.81H305.68Z" fill="#3F3D56"/>
<path d="M481.78 266.02H204.28C201.896 266.023 199.61 266.971 197.923 268.656C196.236 270.341 195.286 272.626 195.28 275.01V462.27C195.282 464.656 196.231 466.944 197.918 468.632C199.606 470.319 201.894 471.268 204.28 471.27H481.78C484.166 471.268 486.454 470.319 488.142 468.632C489.829 466.944 490.778 464.656 490.78 462.27V275.01C490.774 272.626 489.824 270.341 488.137 268.656C486.45 266.971 484.164 266.023 481.78 266.02Z" fill="#3F3D56"/>
<path d="M479.46 272.52H206.59C205.313 272.523 204.09 273.032 203.188 273.935C202.287 274.839 201.78 276.063 201.78 277.34V459.96C201.782 461.235 202.29 462.457 203.191 463.359C204.093 464.26 205.315 464.768 206.59 464.77H479.46C480.735 464.768 481.957 464.26 482.859 463.359C483.76 462.457 484.268 461.235 484.27 459.96V277.34C484.27 276.063 483.763 274.839 482.862 273.935C481.96 273.032 480.737 272.523 479.46 272.52Z" fill="#4F46E5"/>
<path d="M429.24 540.48L426.72 528.51C426.616 528.022 426.391 527.568 426.066 527.189C425.741 526.81 425.326 526.518 424.86 526.34C424.522 526.208 424.163 526.14 423.8 526.14H266.49C266.127 526.14 265.768 526.208 265.43 526.34C264.964 526.518 264.549 526.81 264.224 527.189C263.899 527.568 263.674 528.022 263.57 528.51L261.05 540.48C260.959 540.915 260.966 541.364 261.07 541.795C261.175 542.227 261.374 542.63 261.654 542.975C261.933 543.319 262.286 543.597 262.687 543.789C263.088 543.98 263.526 544.079 263.97 544.08H426.31C426.755 544.082 427.196 543.984 427.597 543.791C427.999 543.599 428.352 543.318 428.63 542.97C428.91 542.626 429.11 542.225 429.216 541.794C429.321 541.363 429.33 540.914 429.24 540.48Z" fill="#2F2E41"/>
<path d="M272.155 528.296H268.131C267.862 528.296 267.643 528.514 267.643 528.784V530.808C267.643 531.077 267.862 531.296 268.131 531.296H272.155C272.424 531.296 272.643 531.077 272.643 530.808V528.784C272.643 528.514 272.424 528.296 272.155 528.296Z" fill="#3F3D56"/>
<path d="M282.155 528.296H278.131C277.862 528.296 277.643 528.514 277.643 528.784V530.808C277.643 531.077 277.862 531.296 278.131 531.296H282.155C282.424 531.296 282.643 531.077 282.643 530.808V528.784C282.643 528.514 282.424 528.296 282.155 528.296Z" fill="#3F3D56"/>
<path d="M292.155 528.296H288.131C287.862 528.296 287.643 528.514 287.643 528.784V530.808C287.643 531.077 287.862 531.296 288.131 531.296H292.155C292.424 531.296 292.643 531.077 292.643 530.808V528.784C292.643 528.514 292.424 528.296 292.155 528.296Z" fill="#3F3D56"/>
<path d="M302.155 528.296H298.131C297.862 528.296 297.643 528.514 297.643 528.784V530.808C297.643 531.077 297.862 531.296 298.131 531.296H302.155C302.424 531.296 302.643 531.077 302.643 530.808V528.784C302.643 528.514 302.424 528.296 302.155 528.296Z" fill="#3F3D56"/>
<path d="M312.155 528.296H308.131C307.862 528.296 307.643 528.514 307.643 528.784V530.808C307.643 531.077 307.862 531.296 308.131 531.296H312.155C312.424 531.296 312.643 531.077 312.643 530.808V528.784C312.643 528.514 312.424 528.296 312.155 528.296Z" fill="#3F3D56"/>
<path d="M322.155 528.296H318.131C317.862 528.296 317.643 528.514 317.643 528.784V530.808C317.643 531.077 317.862 531.296 318.131 531.296H322.155C322.424 531.296 322.643 531.077 322.643 530.808V528.784C322.643 528.514 322.424 528.296 322.155 528.296Z" fill="#3F3D56"/>
<path d="M332.155 528.296H328.131C327.862 528.296 327.643 528.514 327.643 528.784V530.808C327.643 531.077 327.862 531.296 328.131 531.296H332.155C332.424 531.296 332.643 531.077 332.643 530.808V528.784C332.643 528.514 332.424 528.296 332.155 528.296Z" fill="#3F3D56"/>
<path d="M342.155 528.296H338.131C337.862 528.296 337.643 528.514 337.643 528.784V530.808C337.643 531.077 337.862 531.296 338.131 531.296H342.155C342.424 531.296 342.643 531.077 342.643 530.808V528.784C342.643 528.514 342.424 528.296 342.155 528.296Z" fill="#3F3D56"/>
<path d="M352.155 528.296H348.131C347.862 528.296 347.643 528.514 347.643 528.784V530.808C347.643 531.077 347.862 531.296 348.131 531.296H352.155C352.424 531.296 352.643 531.077 352.643 530.808V528.784C352.643 528.514 352.424 528.296 352.155 528.296Z" fill="#3F3D56"/>
<path d="M362.155 528.296H358.131C357.862 528.296 357.643 528.514 357.643 528.784V530.808C357.643 531.077 357.862 531.296 358.131 531.296H362.155C362.424 531.296 362.643 531.077 362.643 530.808V528.784C362.643 528.514 362.424 528.296 362.155 528.296Z" fill="#3F3D56"/>
<path d="M372.155 528.296H368.131C367.862 528.296 367.643 528.514 367.643 528.784V530.808C367.643 531.077 367.862 531.296 368.131 531.296H372.155C372.424 531.296 372.643 531.077 372.643 530.808V528.784C372.643 528.514 372.424 528.296 372.155 528.296Z" fill="#3F3D56"/>
<path d="M382.155 528.296H378.131C377.862 528.296 377.643 528.514 377.643 528.784V530.808C377.643 531.077 377.862 531.296 378.131 531.296H382.155C382.424 531.296 382.643 531.077 382.643 530.808V528.784C382.643 528.514 382.424 528.296 382.155 528.296Z" fill="#3F3D56"/>
<path d="M392.155 528.296H388.131C387.862 528.296 387.643 528.514 387.643 528.784V530.808C387.643 531.077 387.862 531.296 388.131 531.296H392.155C392.424 531.296 392.643 531.077 392.643 530.808V528.784C392.643 528.514 392.424 528.296 392.155 528.296Z" fill="#3F3D56"/>
<path d="M402.155 528.296H398.131C397.862 528.296 397.643 528.514 397.643 528.784V530.808C397.643 531.077 397.862 531.296 398.131 531.296H402.155C402.424 531.296 402.643 531.077 402.643 530.808V528.784C402.643 528.514 402.424 528.296 402.155 528.296Z" fill="#3F3D56"/>
<path d="M412.155 528.296H408.131C407.862 528.296 407.643 528.514 407.643 528.784V530.808C407.643 531.077 407.862 531.296 408.131 531.296H412.155C412.424 531.296 412.643 531.077 412.643 530.808V528.784C412.643 528.514 412.424 528.296 412.155 528.296Z" fill="#3F3D56"/>
<path d="M422.155 528.296H418.131C417.862 528.296 417.643 528.514 417.643 528.784V530.808C417.643 531.077 417.862 531.296 418.131 531.296H422.155C422.424 531.296 422.643 531.077 422.643 530.808V528.784C422.643 528.514 422.424 528.296 422.155 528.296Z" fill="#3F3D56"/>
<path d="M272.037 533.296H268.013C267.743 533.296 267.525 533.514 267.525 533.784V535.808C267.525 536.077 267.743 536.296 268.013 536.296H272.037C272.306 536.296 272.525 536.077 272.525 535.808V533.784C272.525 533.514 272.306 533.296 272.037 533.296Z" fill="#3F3D56"/>
<path d="M282.037 533.296H278.013C277.743 533.296 277.525 533.514 277.525 533.784V535.808C277.525 536.077 277.743 536.296 278.013 536.296H282.037C282.306 536.296 282.525 536.077 282.525 535.808V533.784C282.525 533.514 282.306 533.296 282.037 533.296Z" fill="#3F3D56"/>
<path d="M292.037 533.296H288.013C287.743 533.296 287.525 533.514 287.525 533.784V535.808C287.525 536.077 287.743 536.296 288.013 536.296H292.037C292.306 536.296 292.525 536.077 292.525 535.808V533.784C292.525 533.514 292.306 533.296 292.037 533.296Z" fill="#3F3D56"/>
<path d="M302.037 533.296H298.013C297.743 533.296 297.525 533.514 297.525 533.784V535.808C297.525 536.077 297.743 536.296 298.013 536.296H302.037C302.306 536.296 302.525 536.077 302.525 535.808V533.784C302.525 533.514 302.306 533.296 302.037 533.296Z" fill="#3F3D56"/>
<path d="M312.037 533.296H308.013C307.743 533.296 307.525 533.514 307.525 533.784V535.808C307.525 536.077 307.743 536.296 308.013 536.296H312.037C312.306 536.296 312.525 536.077 312.525 535.808V533.784C312.525 533.514 312.306 533.296 312.037 533.296Z" fill="#3F3D56"/>
<path d="M322.037 533.296H318.013C317.743 533.296 317.525 533.514 317.525 533.784V535.808C317.525 536.077 317.743 536.296 318.013 536.296H322.037C322.306 536.296 322.525 536.077 322.525 535.808V533.784C322.525 533.514 322.306 533.296 322.037 533.296Z" fill="#3F3D56"/>
<path d="M332.037 533.296H328.013C327.743 533.296 327.525 533.514 327.525 533.784V535.808C327.525 536.077 327.743 536.296 328.013 536.296H332.037C332.306 536.296 332.525 536.077 332.525 535.808V533.784C332.525 533.514 332.306 533.296 332.037 533.296Z" fill="#3F3D56"/>
<path d="M342.037 533.296H338.013C337.743 533.296 337.525 533.514 337.525 533.784V535.808C337.525 536.077 337.743 536.296 338.013 536.296H342.037C342.306 536.296 342.525 536.077 342.525 535.808V533.784C342.525 533.514 342.306 533.296 342.037 533.296Z" fill="#3F3D56"/>
<path d="M352.037 533.296H348.013C347.743 533.296 347.525 533.514 347.525 533.784V535.808C347.525 536.077 347.743 536.296 348.013 536.296H352.037C352.306 536.296 352.525 536.077 352.525 535.808V533.784C352.525 533.514 352.306 533.296 352.037 533.296Z" fill="#3F3D56"/>
<path d="M362.037 533.296H358.013C357.743 533.296 357.525 533.514 357.525 533.784V535.808C357.525 536.077 357.743 536.296 358.013 536.296H362.037C362.306 536.296 362.525 536.077 362.525 535.808V533.784C362.525 533.514 362.306 533.296 362.037 533.296Z" fill="#3F3D56"/>
<path d="M372.037 533.296H368.013C367.743 533.296 367.525 533.514 367.525 533.784V535.808C367.525 536.077 367.743 536.296 368.013 536.296H372.037C372.306 536.296 372.525 536.077 372.525 535.808V533.784C372.525 533.514 372.306 533.296 372.037 533.296Z" fill="#3F3D56"/>
<path d="M382.037 533.296H378.013C377.743 533.296 377.525 533.514 377.525 533.784V535.808C377.525 536.077 377.743 536.296 378.013 536.296H382.037C382.306 536.296 382.525 536.077 382.525 535.808V533.784C382.525 533.514 382.306 533.296 382.037 533.296Z" fill="#3F3D56"/>
<path d="M392.037 533.296H388.013C387.743 533.296 387.525 533.514 387.525 533.784V535.808C387.525 536.077 387.743 536.296 388.013 536.296H392.037C392.306 536.296 392.525 536.077 392.525 535.808V533.784C392.525 533.514 392.306 533.296 392.037 533.296Z" fill="#3F3D56"/>
<path d="M402.037 533.296H398.013C397.743 533.296 397.525 533.514 397.525 533.784V535.808C397.525 536.077 397.743 536.296 398.013 536.296H402.037C402.306 536.296 402.525 536.077 402.525 535.808V533.784C402.525 533.514 402.306 533.296 402.037 533.296Z" fill="#3F3D56"/>
<path d="M412.037 533.296H408.013C407.743 533.296 407.525 533.514 407.525 533.784V535.808C407.525 536.077 407.743 536.296 408.013 536.296H412.037C412.306 536.296 412.525 536.077 412.525 535.808V533.784C412.525 533.514 412.306 533.296 412.037 533.296Z" fill="#3F3D56"/>
<path d="M422.037 533.296H418.013C417.743 533.296 417.525 533.514 417.525 533.784V535.808C417.525 536.077 417.743 536.296 418.013 536.296H422.037C422.306 536.296 422.525 536.077 422.525 535.808V533.784C422.525 533.514 422.306 533.296 422.037 533.296Z" fill="#3F3D56"/>
<path d="M355.037 539.296H316.013C315.743 539.296 315.525 539.514 315.525 539.784V541.808C315.525 542.077 315.743 542.296 316.013 542.296H355.037C355.306 542.296 355.525 542.077 355.525 541.808V539.784C355.525 539.514 355.306 539.296 355.037 539.296Z" fill="#3F3D56"/>
<path d="M465.748 297.677H210.425C210.159 297.671 209.907 297.561 209.721 297.372C209.535 297.182 209.431 296.927 209.431 296.661C209.431 296.396 209.535 296.141 209.721 295.951C209.907 295.761 210.159 295.652 210.425 295.646H465.748C466.014 295.652 466.266 295.761 466.452 295.951C466.637 296.141 466.741 296.396 466.741 296.661C466.741 296.927 466.637 297.182 466.452 297.372C466.266 297.561 466.014 297.671 465.748 297.677Z" fill="#3F3D56"/>
<path d="M227.805 290.462C231.091 290.462 233.755 287.738 233.755 284.379C233.755 281.019 231.091 278.296 227.805 278.296C224.519 278.296 221.855 281.019 221.855 284.379C221.855 287.738 224.519 290.462 227.805 290.462Z" fill="#3F3D56"/>
<path d="M248.361 290.462C251.647 290.462 254.311 287.738 254.311 284.379C254.311 281.019 251.647 278.296 248.361 278.296C245.075 278.296 242.411 281.019 242.411 284.379C242.411 287.738 245.075 290.462 248.361 290.462Z" fill="#3F3D56"/>
<path d="M268.917 290.462C272.203 290.462 274.867 287.738 274.867 284.379C274.867 281.019 272.203 278.296 268.917 278.296C265.631 278.296 262.967 281.019 262.967 284.379C262.967 287.738 265.631 290.462 268.917 290.462Z" fill="#3F3D56"/>
<path d="M453.37 279.8H438.77C438.481 279.807 438.207 279.926 438.005 280.133C437.803 280.339 437.69 280.616 437.69 280.905C437.69 281.194 437.803 281.471 438.005 281.677C438.207 281.884 438.481 282.003 438.77 282.01H453.37C453.66 282.006 453.937 281.888 454.141 281.681C454.345 281.474 454.46 281.195 454.46 280.905C454.46 280.615 454.345 280.336 454.141 280.129C453.937 279.922 453.66 279.804 453.37 279.8Z" fill="#3F3D56"/>
<path d="M453.37 283.95H438.77C438.481 283.956 438.206 284.076 438.004 284.282C437.802 284.489 437.689 284.766 437.689 285.055C437.689 285.344 437.802 285.621 438.004 285.828C438.206 286.034 438.481 286.154 438.77 286.16H453.37C453.661 286.157 453.938 286.039 454.143 285.832C454.347 285.625 454.462 285.346 454.462 285.055C454.462 284.764 454.347 284.485 454.143 284.278C453.938 284.071 453.661 283.954 453.37 283.95Z" fill="#3F3D56"/>
<path d="M453.37 288.1H438.77C438.481 288.107 438.207 288.226 438.005 288.433C437.803 288.639 437.69 288.916 437.69 289.205C437.69 289.494 437.803 289.771 438.005 289.977C438.207 290.184 438.481 290.303 438.77 290.31H453.37C453.66 290.306 453.937 290.188 454.141 289.981C454.345 289.774 454.46 289.495 454.46 289.205C454.46 288.915 454.345 288.636 454.141 288.429C453.937 288.222 453.66 288.104 453.37 288.1Z" fill="#3F3D56"/>
<path d="M232.44 321.273H227.194C225.604 321.273 224.314 322.563 224.314 324.153C224.314 325.744 225.604 327.033 227.194 327.033H232.44C234.031 327.033 235.32 325.744 235.32 324.153C235.32 322.563 234.031 321.273 232.44 321.273Z" fill="#E6E6E6"/>
<path d="M292.44 321.273H287.194C285.604 321.273 284.314 322.563 284.314 324.153C284.314 325.744 285.604 327.033 287.194 327.033H292.44C294.031 327.033 295.32 325.744 295.32 324.153C295.32 322.563 294.031 321.273 292.44 321.273Z" fill="#E6E6E6"/>
<path d="M309.44 321.273H304.194C302.604 321.273 301.314 322.563 301.314 324.153C301.314 325.744 302.604 327.033 304.194 327.033H309.44C311.031 327.033 312.32 325.744 312.32 324.153C312.32 322.563 311.031 321.273 309.44 321.273Z" fill="#E6E6E6"/>
<path d="M276.12 320.793H243.514C241.924 320.793 240.634 322.083 240.634 323.673C240.634 325.264 241.924 326.553 243.514 326.553H276.12C277.711 326.553 279 325.264 279 323.673C279 322.083 277.711 320.793 276.12 320.793Z" fill="#E6E6E6"/>
<path d="M356.12 320.793H323.514C321.924 320.793 320.634 322.083 320.634 323.673C320.634 325.264 321.924 326.553 323.514 326.553H356.12C357.711 326.553 359 325.264 359 323.673C359 322.083 357.711 320.793 356.12 320.793Z" fill="#E6E6E6"/>
<path d="M248.44 334.273H243.194C241.604 334.273 240.314 335.563 240.314 337.153C240.314 338.744 241.604 340.033 243.194 340.033H248.44C250.031 340.033 251.32 338.744 251.32 337.153C251.32 335.563 250.031 334.273 248.44 334.273Z" fill="#E6E6E6"/>
<path d="M308.44 334.273H303.194C301.604 334.273 300.314 335.563 300.314 337.153C300.314 338.744 301.604 340.033 303.194 340.033H308.44C310.031 340.033 311.32 338.744 311.32 337.153C311.32 335.563 310.031 334.273 308.44 334.273Z" fill="#E6E6E6"/>
<path d="M325.44 334.273H320.194C318.604 334.273 317.314 335.563 317.314 337.153C317.314 338.744 318.604 340.033 320.194 340.033H325.44C327.031 340.033 328.32 338.744 328.32 337.153C328.32 335.563 327.031 334.273 325.44 334.273Z" fill="#E6E6E6"/>
<path d="M292.12 333.793H259.514C257.924 333.793 256.634 335.083 256.634 336.673C256.634 338.264 257.924 339.553 259.514 339.553H292.12C293.711 339.553 295 338.264 295 336.673C295 335.083 293.711 333.793 292.12 333.793Z" fill="#E6E6E6"/>
<path d="M372.12 333.793H339.514C337.924 333.793 336.634 335.083 336.634 336.673C336.634 338.264 337.924 339.553 339.514 339.553H372.12C373.711 339.553 375 338.264 375 336.673C375 335.083 373.711 333.793 372.12 333.793Z" fill="#E6E6E6"/>
<path d="M264.44 347.273H259.194C257.604 347.273 256.314 348.563 256.314 350.153C256.314 351.744 257.604 353.033 259.194 353.033H264.44C266.031 353.033 267.32 351.744 267.32 350.153C267.32 348.563 266.031 347.273 264.44 347.273Z" fill="#E6E6E6"/>
<path d="M324.44 347.273H319.194C317.604 347.273 316.314 348.563 316.314 350.153C316.314 351.744 317.604 353.033 319.194 353.033H324.44C326.031 353.033 327.32 351.744 327.32 350.153C327.32 348.563 326.031 347.273 324.44 347.273Z" fill="#E6E6E6"/>
<path d="M341.44 347.273H336.194C334.604 347.273 333.314 348.563 333.314 350.153C333.314 351.744 334.604 353.033 336.194 353.033H341.44C343.031 353.033 344.32 351.744 344.32 350.153C344.32 348.563 343.031 347.273 341.44 347.273Z" fill="#E6E6E6"/>
<path d="M308.12 346.793H275.514C273.924 346.793 272.634 348.083 272.634 349.673C272.634 351.264 273.924 352.553 275.514 352.553H308.12C309.711 352.553 311 351.264 311 349.673C311 348.083 309.711 346.793 308.12 346.793Z" fill="#E6E6E6"/>
<path d="M388.12 346.793H355.514C353.924 346.793 352.634 348.083 352.634 349.673C352.634 351.264 353.924 352.553 355.514 352.553H388.12C389.711 352.553 391 351.264 391 349.673C391 348.083 389.711 346.793 388.12 346.793Z" fill="#E6E6E6"/>
<path d="M280.44 360.273H275.194C273.604 360.273 272.314 361.563 272.314 363.153C272.314 364.744 273.604 366.033 275.194 366.033H280.44C282.031 366.033 283.32 364.744 283.32 363.153C283.32 361.563 282.031 360.273 280.44 360.273Z" fill="#E6E6E6"/>
<path d="M340.44 360.273H335.194C333.604 360.273 332.314 361.563 332.314 363.153C332.314 364.744 333.604 366.033 335.194 366.033H340.44C342.031 366.033 343.32 364.744 343.32 363.153C343.32 361.563 342.031 360.273 340.44 360.273Z" fill="#E6E6E6"/>
<path d="M357.44 360.273H352.194C350.604 360.273 349.314 361.563 349.314 363.153C349.314 364.744 350.604 366.033 352.194 366.033H357.44C359.031 366.033 360.32 364.744 360.32 363.153C360.32 361.563 359.031 360.273 357.44 360.273Z" fill="#E6E6E6"/>
<path d="M324.12 359.793H291.514C289.924 359.793 288.634 361.083 288.634 362.673C288.634 364.264 289.924 365.553 291.514 365.553H324.12C325.711 365.553 327 364.264 327 362.673C327 361.083 325.711 359.793 324.12 359.793Z" fill="#E6E6E6"/>
<path d="M292.44 411.967H287.194C285.604 411.967 284.314 413.256 284.314 414.847C284.314 416.437 285.604 417.727 287.194 417.727H292.44C294.031 417.727 295.32 416.437 295.32 414.847C295.32 413.256 294.031 411.967 292.44 411.967Z" fill="#E6E6E6"/>
<path d="M309.44 411.967H304.194C302.604 411.967 301.314 413.256 301.314 414.847C301.314 416.437 302.604 417.727 304.194 417.727H309.44C311.031 417.727 312.32 416.437 312.32 414.847C312.32 413.256 311.031 411.967 309.44 411.967Z" fill="#E6E6E6"/>
<path d="M356.12 412.447H323.514C321.924 412.447 320.634 413.736 320.634 415.327C320.634 416.917 321.924 418.207 323.514 418.207H356.12C357.711 418.207 359 416.917 359 415.327C359 413.736 357.711 412.447 356.12 412.447Z" fill="#E6E6E6"/>
<path d="M232.44 411.967H227.194C225.604 411.967 224.314 413.256 224.314 414.847C224.314 416.437 225.604 417.727 227.194 417.727H232.44C234.031 417.727 235.32 416.437 235.32 414.847C235.32 413.256 234.031 411.967 232.44 411.967Z" fill="#E6E6E6"/>
<path d="M276.12 412.447H243.514C241.924 412.447 240.634 413.736 240.634 415.327C240.634 416.917 241.924 418.207 243.514 418.207H276.12C277.711 418.207 279 416.917 279 415.327C279 413.736 277.711 412.447 276.12 412.447Z" fill="#E6E6E6"/>
<path d="M248.44 398.967H243.194C241.604 398.967 240.314 400.256 240.314 401.847C240.314 403.437 241.604 404.727 243.194 404.727H248.44C250.031 404.727 251.32 403.437 251.32 401.847C251.32 400.256 250.031 398.967 248.44 398.967Z" fill="#E6E6E6"/>
<path d="M308.44 398.967H303.194C301.604 398.967 300.314 400.256 300.314 401.847C300.314 403.437 301.604 404.727 303.194 404.727H308.44C310.031 404.727 311.32 403.437 311.32 401.847C311.32 400.256 310.031 398.967 308.44 398.967Z" fill="#E6E6E6"/>
<path d="M325.44 398.967H320.194C318.604 398.967 317.314 400.256 317.314 401.847C317.314 403.437 318.604 404.727 320.194 404.727H325.44C327.031 404.727 328.32 403.437 328.32 401.847C328.32 400.256 327.031 398.967 325.44 398.967Z" fill="#E6E6E6"/>
<path d="M292.12 399.447H259.514C257.924 399.447 256.634 400.736 256.634 402.327C256.634 403.917 257.924 405.207 259.514 405.207H292.12C293.711 405.207 295 403.917 295 402.327C295 400.736 293.711 399.447 292.12 399.447Z" fill="#E6E6E6"/>
<path d="M264.44 385.967H259.194C257.604 385.967 256.314 387.256 256.314 388.847C256.314 390.437 257.604 391.727 259.194 391.727H264.44C266.031 391.727 267.32 390.437 267.32 388.847C267.32 387.256 266.031 385.967 264.44 385.967Z" fill="#E6E6E6"/>
<path d="M324.44 385.967H319.194C317.604 385.967 316.314 387.256 316.314 388.847C316.314 390.437 317.604 391.727 319.194 391.727H324.44C326.031 391.727 327.32 390.437 327.32 388.847C327.32 387.256 326.031 385.967 324.44 385.967Z" fill="#E6E6E6"/>
<path d="M341.44 385.967H336.194C334.604 385.967 333.314 387.256 333.314 388.847C333.314 390.437 334.604 391.727 336.194 391.727H341.44C343.031 391.727 344.32 390.437 344.32 388.847C344.32 387.256 343.031 385.967 341.44 385.967Z" fill="#E6E6E6"/>
<path d="M308.12 386.447H275.514C273.924 386.447 272.634 387.736 272.634 389.327C272.634 390.917 273.924 392.207 275.514 392.207H308.12C309.711 392.207 311 390.917 311 389.327C311 387.736 309.711 386.447 308.12 386.447Z" fill="#E6E6E6"/>
<path d="M280.44 372.967H275.194C273.604 372.967 272.314 374.256 272.314 375.847C272.314 377.437 273.604 378.727 275.194 378.727H280.44C282.031 378.727 283.32 377.437 283.32 375.847C283.32 374.256 282.031 372.967 280.44 372.967Z" fill="#E6E6E6"/>
<path d="M340.44 372.967H335.194C333.604 372.967 332.314 374.256 332.314 375.847C332.314 377.437 333.604 378.727 335.194 378.727H340.44C342.031 378.727 343.32 377.437 343.32 375.847C343.32 374.256 342.031 372.967 340.44 372.967Z" fill="#E6E6E6"/>
<path d="M357.44 372.967H352.194C350.604 372.967 349.314 374.256 349.314 375.847C349.314 377.437 350.604 378.727 352.194 378.727H357.44C359.031 378.727 360.32 377.437 360.32 375.847C360.32 374.256 359.031 372.967 357.44 372.967Z" fill="#E6E6E6"/>
<path d="M324.12 373.447H291.514C289.924 373.447 288.634 374.736 288.634 376.327C288.634 377.917 289.924 379.207 291.514 379.207H324.12C325.711 379.207 327 377.917 327 376.327C327 374.736 325.711 373.447 324.12 373.447Z" fill="#E6E6E6"/>
<path d="M468.81 599.77C468.2 600.08 467.58 600.39 466.97 600.69C451.17 608.59 438.53 613.08 421.24 618C419.78 601.7 418.37 573.05 417 555.29C416.64 550.68 416.28 546.81 415.93 544.08C415.842 542.629 415.545 541.197 415.05 539.83L415.11 544.08L415.26 555.29L416.13 619.4C394.622 625.091 372.529 628.275 350.29 628.89C349.13 628.92 347.99 628.94 346.89 628.96C346.5 628.97 346.12 628.98 345.74 628.98C344.49 628.99 343.25 629 342 629C318.564 629.017 295.213 626.187 272.46 620.57C272.95 604.44 273.44 576.11 273.91 555.29C274.01 551.22 274.1 547.43 274.2 544.08C274.39 536.92 274.59 531.76 274.78 530.03C274.612 530.337 274.481 530.662 274.39 531C273.464 535.312 272.832 539.682 272.5 544.08C272.15 547.43 271.8 551.22 271.45 555.29C269.59 576.92 267.65 606.33 265.65 618.8C253.746 615.55 242.064 611.532 230.68 606.77C224.68 604.27 218.787 601.573 213 598.68C214.1 591.48 215.25 583.41 216.43 575.04C217.35 568.55 218.3 561.88 219.27 555.29C220.77 545.11 222.31 535.13 223.87 526.34C226.15 513.5 228.49 503.18 230.81 498.44C233.01 493.94 235.21 489.5 237.34 485.25C238.08 483.76 238.82 482.29 239.54 480.86C239.71 480.52 239.88 480.19 240.05 479.86C241.58 476.85 243.06 473.97 244.47 471.27C245.68 468.96 246.83 466.78 247.92 464.77C250.56 459.89 252.8 456 254.46 453.54C261.4 443.013 271.732 435.176 283.74 431.33L284.04 431.25L284.25 431.34L304.7 425.06L307.69 424.14L309.7 423.52L316.78 418.13L320.63 415.2L324.24 412.45L331.3 407.08L375.01 409.77L383.52 430.26L402.58 437.23L402.91 437.08L403.2 436.96L403.5 437.04C415.506 440.889 425.837 448.726 432.78 459.25C433.72 460.66 434.86 462.52 436.15 464.77C437.25 466.68 438.45 468.86 439.75 471.27C441.6 474.7 443.62 478.57 445.76 482.76C446.23 483.68 446.71 484.62 447.19 485.57C448.08 487.33 448.983 489.127 449.9 490.96C452.03 495.21 454.23 499.65 456.43 504.16C458.34 508.07 460.27 516.11 462.17 526.34C463.74 534.84 465.3 544.86 466.81 555.29C468.79 568.81 466.68 585 468.47 597.44C468.58 598.23 468.7 599 468.81 599.77Z" fill="#3F3D56"/>
<path d="M342.615 390.725C370.691 390.725 393.451 367.964 393.451 339.888C393.451 311.812 370.691 289.052 342.615 289.052C314.539 289.052 291.779 311.812 291.779 339.888C291.779 367.964 314.539 390.725 342.615 390.725Z" fill="#A0616A"/>
<path d="M426.45 272.52C425.445 270.174 424.108 267.985 422.48 266.02C414.76 256.59 400.72 252.44 386.31 263.6C383.536 262.98 380.645 263.146 377.96 264.08C376.693 264.539 375.505 265.194 374.44 266.02C372.258 267.722 370.556 269.962 369.5 272.52C368.936 273.871 368.565 275.295 368.4 276.75C364.838 274.899 361.068 273.479 357.17 272.52C347.606 270.141 337.604 270.141 328.04 272.52C324.975 273.295 322.024 274.465 319.26 276C314.58 278.7 311.89 282.11 311.41 285.9C304.66 286.28 297.64 289.83 292.41 295.65C291.82 296.3 291.25 296.98 290.72 297.68C286.322 303.435 283.958 310.487 284 317.73V319H285.27C288.75 318.997 292.197 319.669 295.42 320.98C297.509 321.819 299.487 322.91 301.31 324.23C302.503 325.076 303.629 326.012 304.68 327.03C307.116 329.388 309.179 332.102 310.8 335.08C314.955 342.605 316.395 351.329 314.88 359.79C314.532 361.749 314.024 363.675 313.36 365.55C312.415 368.225 311.171 370.785 309.65 373.18C309.59 373.27 309.54 373.36 309.48 373.45C308.81 374.52 308.17 375.61 307.57 376.71C307.12 377.53 306.7 378.37 306.31 379.21C305.17 381.548 304.207 383.968 303.43 386.45C302.038 390.84 301.218 395.391 300.99 399.99C300.92 401.21 300.9 402.43 300.94 403.65C300.999 406.795 301.344 409.928 301.97 413.01C302.06 413.43 302.15 413.84 302.24 414.26L302.97 417.45L304.7 425.06L305.9 430.3L307.01 435.16L308.65 432.81C309.21 432.01 310.62 429.55 312.51 426.07C313.76 423.8 315.21 421.09 316.78 418.13C318.97 413.98 321.37 409.35 323.72 404.73C324.67 402.86 325.61 401 326.52 399.18C328.24 395.73 329.86 392.4 331.25 389.44C332.53 386.71 333.62 384.29 334.43 382.35C334.68 383.62 334.89 384.91 335.05 386.21C335.23 387.53 335.36 388.87 335.43 390.21C335.45 390.41 335.46 390.62 335.47 390.82L335.51 391.64L335.52 391.88L336.58 392.02C342.694 392.675 348.857 392.722 354.98 392.16H354.99C363.101 391.549 371.059 389.621 378.55 386.45C382.805 384.604 386.777 382.167 390.35 379.21C392.019 377.828 393.578 376.317 395.01 374.69C395.37 374.28 395.72 373.87 396.06 373.45C398.039 371.018 399.733 368.367 401.11 365.55C402.032 363.691 402.814 361.766 403.45 359.79C407.29 348.16 407.07 333.65 402.79 316.41C403.946 316.187 405.053 315.761 406.06 315.15C409.2 313.26 411.38 309.51 412.06 304.93L413.14 305.22C416.969 303.437 420.379 300.868 423.15 297.68C423.699 297.031 424.213 296.353 424.69 295.65C429.58 288.45 429.62 279.81 426.45 272.52Z" fill="#2F2E41"/>
<path opacity="0.2" d="M259.32 526.296L267.817 493.504L275.32 521.8L259.32 526.296Z" fill="black"/>
<path d="M485.43 504.93C482.39 546.81 485.54 565.25 468.76 599.78C453.493 607.253 437.59 613.35 421.24 618C419.54 618.48 417.837 618.947 416.13 619.4C394.622 625.091 372.529 628.275 350.29 628.89C349.13 628.92 347.99 628.94 346.89 628.96C346.5 628.97 346.12 628.98 345.74 628.98C344.49 628.99 343.25 629 342 629C318.564 629.017 295.213 626.187 272.46 620.57C270.18 620.01 267.91 619.42 265.65 618.8C253.746 615.55 242.064 611.532 230.68 606.77C224.68 604.27 218.787 601.573 213 598.68C211.69 598.02 210.38 597.36 209.09 596.68C202.46 585.02 198.69 570.84 198.61 553.8C203.2 524.44 475.29 479.61 485.43 504.93Z" fill="#2F2E41"/>
<path opacity="0.2" d="M485.422 512.102C485.577 509.509 485.751 506.831 485.953 504.042C475.813 478.722 203.723 523.552 199.133 552.912C199.146 555.604 199.261 558.216 199.455 560.767C210.57 531.789 469.059 489.181 485.422 512.102Z" fill="black"/>
<path d="M216.096 393.152C216.162 392.245 216.033 391.335 215.718 390.482C215.403 389.629 214.909 388.854 214.269 388.208C213.629 387.562 212.859 387.061 212.009 386.738C211.159 386.415 210.25 386.278 209.343 386.336C209.005 386.349 208.668 386.391 208.338 386.462L168.576 395.444C167.687 395.66 166.854 396.059 166.129 396.616C165.404 397.173 164.804 397.876 164.367 398.679C163.784 398.701 163.205 398.786 162.639 398.931C161.402 399.211 160.232 399.732 159.196 400.465C158.16 401.198 157.279 402.127 156.602 403.2C155.926 404.274 155.467 405.47 155.253 406.72C155.038 407.971 155.072 409.251 155.353 410.489C155.633 411.726 156.155 412.896 156.887 413.932C157.62 414.968 158.55 415.849 159.623 416.526C161.79 417.892 164.412 418.342 166.911 417.775C168.333 417.445 169.664 416.801 170.805 415.891L184.279 453.831C184.952 455.02 185.992 455.96 187.243 456.509C188.494 457.058 189.89 457.187 191.22 456.878L217.069 451.036C218.39 450.727 219.578 450.007 220.464 448.98C221.35 447.953 221.888 446.672 222 445.32L216.096 393.152ZM166.314 415.074C164.529 415.477 162.658 415.155 161.11 414.18C159.562 413.205 158.464 411.656 158.056 409.872C157.649 408.088 157.965 406.216 158.936 404.665C159.907 403.115 161.454 402.013 163.236 401.6C163.362 401.569 163.488 401.6 163.613 401.569C163.604 402.713 163.896 403.84 164.461 404.835L169.392 413.441C168.534 414.255 167.47 414.82 166.314 415.074Z" fill="#2F2E41"/>
<path d="M209.343 386.336C209.72 391.361 201.114 397.14 189.587 399.433C179.003 401.6 169.518 400.093 166.848 396.135C167.385 395.817 167.967 395.584 168.576 395.444L208.338 386.462C208.668 386.391 209.005 386.349 209.343 386.336Z" fill="#3F3D56"/>
<path d="M181.843 513.905L204.177 502.738L185.566 452.488L180.661 427.146C180.023 423.853 178.533 420.786 176.339 418.25C174.145 415.714 171.324 413.798 168.157 412.694C164.991 411.59 161.59 411.336 158.294 411.958C154.999 412.58 151.925 414.056 149.378 416.238C145.605 419.472 143.236 424.046 142.771 428.994C142.306 433.941 143.782 438.876 146.886 442.757L165.093 465.516L181.843 513.905Z" fill="#A0616A"/>
<path d="M204.177 493.433L174.399 508.322L196.997 579.131C198.62 584.216 201.529 588.795 205.443 592.424C209.356 596.054 214.141 598.611 219.333 599.847C225.735 601.372 232.457 600.817 238.523 598.265C244.589 595.712 249.684 591.294 253.07 585.65L312.995 482.936C317.242 475.859 318.553 467.401 316.648 459.37C314.743 451.338 309.773 444.371 302.8 439.954C299.049 437.579 294.841 436.02 290.448 435.379C286.055 434.738 281.577 435.029 277.304 436.233C273.031 437.437 269.06 439.527 265.648 442.368C262.237 445.208 259.462 448.735 257.504 452.719L220.928 530.656L204.177 493.433Z" fill="#3F3D56"/>
<path d="M194.967 429.441C194.911 429.441 194.857 429.432 194.804 429.414L188.303 427.176C188.224 427.149 188.154 427.103 188.097 427.042C188.041 426.981 188.001 426.907 187.98 426.826C187.96 426.746 187.96 426.661 187.98 426.581C188.001 426.5 188.041 426.426 188.097 426.365L192.933 421.101C192.977 421.052 193.03 421.012 193.09 420.985C193.15 420.957 193.214 420.941 193.28 420.938C193.346 420.935 193.411 420.945 193.473 420.967C193.535 420.99 193.592 421.024 193.64 421.069C193.689 421.113 193.728 421.167 193.756 421.227C193.783 421.286 193.799 421.351 193.802 421.417C193.804 421.482 193.794 421.548 193.771 421.61C193.748 421.671 193.714 421.728 193.669 421.776L189.35 426.479L195.129 428.469C195.241 428.507 195.336 428.584 195.396 428.686C195.457 428.787 195.479 428.907 195.46 429.024C195.44 429.141 195.38 429.247 195.29 429.323C195.2 429.4 195.085 429.441 194.967 429.441Z" fill="#4F46E5"/>
<path d="M203.878 427.617C203.779 427.617 203.681 427.587 203.599 427.532C203.516 427.476 203.452 427.397 203.415 427.305C203.378 427.212 203.369 427.111 203.389 427.014C203.41 426.916 203.459 426.827 203.531 426.758L207.925 422.509L202.022 420.076C201.961 420.051 201.906 420.015 201.859 419.968C201.813 419.922 201.776 419.867 201.75 419.806C201.725 419.746 201.712 419.681 201.712 419.615C201.712 419.549 201.724 419.484 201.75 419.423C201.775 419.363 201.811 419.307 201.858 419.261C201.904 419.214 201.959 419.178 202.02 419.152C202.081 419.127 202.146 419.114 202.211 419.114C202.277 419.114 202.342 419.127 202.403 419.152L209.012 421.876C209.089 421.908 209.157 421.958 209.209 422.022C209.262 422.086 209.297 422.163 209.313 422.244C209.329 422.326 209.324 422.41 209.299 422.489C209.274 422.568 209.229 422.64 209.169 422.697L204.226 427.477C204.133 427.567 204.008 427.617 203.878 427.617Z" fill="#4F46E5"/>
<path d="M196.332 432.5C196.282 432.5 196.232 432.493 196.185 432.478C196.122 432.458 196.063 432.427 196.013 432.385C195.962 432.343 195.92 432.292 195.889 432.234C195.859 432.176 195.84 432.112 195.834 432.047C195.827 431.981 195.834 431.915 195.853 431.853L200.468 416.853C200.508 416.726 200.596 416.621 200.713 416.559C200.83 416.497 200.967 416.485 201.093 416.524C201.22 416.563 201.326 416.65 201.388 416.767C201.45 416.884 201.463 417.021 201.424 417.147L196.81 432.147C196.778 432.25 196.715 432.339 196.629 432.402C196.543 432.466 196.438 432.5 196.332 432.5Z" fill="#4F46E5"/>
</g>
<defs>
<filter id="filter0_f_57_35" x="0" y="0" width="706" height="680" filterUnits="userSpaceOnUse" color-interpolation-filters="sRGB">
<feFlood flood-opacity="0" result="BackgroundImageFix"/>
<feBlend mode="normal" in="SourceGraphic" in2="BackgroundImageFix" result="shape"/>
<feGaussianBlur stdDeviation="50" result="effect1_foregroundBlur_57_35"/>
</filter>
<linearGradient id="paint0_linear_57_35" x1="195.821" y1="145.05" x2="455.793" y2="567.019" gradientUnits="userSpaceOnUse">
<stop stop-color="#EC4899"/>
<stop offset="1" stop-color="#F87171"/>
</linearGradient>
<clipPath id="clip0_57_35">
<rect width="578" height="578" fill="white" transform="translate(53 51)"/>
</clipPath>
</defs>
</svg>
